{
  "asset": {
    "generator": "Khronos glTF Blender I/O v5.1.20",
    "version": "2.0"
  },
  "scene": 0,
  "scenes": [
    {
      "name": "Scene",
      "nodes": [
        0
      ]
    }
  ],
  "nodes": [
    {
      "mesh": 0,
      "name": "medical_tape"
    }
  ],
  "materials": [
    {
      "doubleSided": true,
      "name": "medical_tape",
      "normalTexture": {
        "index": 0
      },
      "pbrMetallicRoughness": {
        "baseColorTexture": {
          "index": 1
        },
        "metallicFactor": 0,
        "metallicRoughnessTexture": {
          "index": 2
        }
      }
    }
  ],
  "meshes": [
    {
      "name": "medical_tape",
      "primitives": [
        {
          "attributes": {
            "POSITION": 0,
            "NORMAL": 1,
            "TEXCOORD_0": 2
          },
          "indices": 3,
          "material": 0
        }
      ]
    }
  ],
  "textures": [
    {
      "sampler": 0,
      "source": 0
    },
    {
      "sampler": 0,
      "source": 1
    },
    {
      "sampler": 0,
      "source": 2
    }
  ],
  "images": [
    {
      "mimeType": "image/jpeg",
      "name": "medical_tape_nor_gl",
      "uri": "textures/medical_tape_nor_gl_1k.jpg"
    },
    {
      "mimeType": "image/jpeg",
      "name": "medical_tape_diff",
      "uri": "textures/medical_tape_diff_1k.jpg"
    },
    {
      "mimeType": "image/jpeg",
      "name": "medical_tape_rough",
      "uri": "textures/medical_tape_arm_1k.jpg"
    }
  ],
  "accessors": [
    {
      "bufferView": 0,
      "componentType": 5126,
      "count": 868,
      "max": [
        0.02271232008934021,
        0.012422512285411358,
        0.02257416397333145
      ],
      "min": [
        -0.022587263956665993,
        -0.01261643785983324,
        -0.022596748545765877
      ],
      "type": "VEC3"
    },
    {
      "bufferView": 1,
      "componentType": 5126,
      "count": 868,
      "type": "VEC3"
    },
    {
      "bufferView": 2,
      "componentType": 5126,
      "count": 868,
      "type": "VEC2"
    },
    {
      "bufferView": 3,
      "componentType": 5123,
      "count": 4224,
      "type": "SCALAR"
    }
  ],
  "bufferViews": [
    {
      "buffer": 0,
      "byteLength": 10416,
      "byteOffset": 0,
      "target": 34962
    },
    {
      "buffer": 0,
      "byteLength": 10416,
      "byteOffset": 10416,
      "target": 34962
    },
    {
      "buffer": 0,
      "byteLength": 6944,
      "byteOffset": 20832,
      "target": 34962
    },
    {
      "buffer": 0,
      "byteLength": 8448,
      "byteOffset": 27776,
      "target": 34963
    }
  ],
  "samplers": [
    {
      "magFilter": 9729,
      "minFilter": 9987
    }
  ],
  "buffers": [
    {
      "byteLength": 36224,
      "uri": "medical_tape.bin"
    }
  ]
}